<?xml version="1.0" encoding="UTF-8" standalone="no" ?>
<!DOCTYPE svg PUBLIC "-//W3C//DTD SVG 1.1//EN" "http://www.w3.org/Graphics/SVG/1.1/DTD/svg11.dtd">
<svg xmlns="http://www.w3.org/2000/svg" xmlns:xlink="http://www.w3.org/1999/xlink" version="1.1" width="1080" height="1080" viewBox="0 0 1080 1080" xml:space="preserve">
<desc>Created with Fabric.js 5.2.4</desc>
<defs>
</defs>
<rect x="0" y="0" width="100%" height="100%" fill="transparent"></rect>
<g transform="matrix(1 0 0 1 540 540)" id="322c8762-e178-450b-8cbf-2037cfe30f48"  >
<rect style="stroke: none; stroke-width: 1; stroke-dasharray: none; stroke-linecap: butt; stroke-dashoffset: 0; stroke-linejoin: miter; stroke-miterlimit: 4; fill: rgb(255,255,255); fill-rule: nonzero; opacity: 1; visibility: hidden;" vector-effect="non-scaling-stroke"  x="-540" y="-540" rx="0" ry="0" width="1080" height="1080" />
</g>
<g transform="matrix(1 0 0 1 540 540)" id="3ce8fe03-389b-4f86-855e-38fc832faf57"  >
</g>
<g transform="matrix(5.33 0 0 5.33 467.84 251.84)"  >
<g style=""   >
		<g transform="matrix(0.1 0 0 0.1 -3.18 3.17)" id="Capa_1"  >
<circle style="stroke: none; stroke-width: 1; stroke-dasharray: none; stroke-linecap: butt; stroke-dashoffset: 0; stroke-linejoin: miter; stroke-miterlimit: 4; fill: rgb(253,100,111); fill-rule: nonzero; opacity: 1;" vector-effect="non-scaling-stroke"  cx="0" cy="0" r="216" />
</g>
		<g transform="matrix(0.1 0 0 0.1 -0.47 5.88)" id="Capa_1"  >
<path style="stroke: none; stroke-width: 1; stroke-dasharray: none; stroke-linecap: butt; stroke-dashoffset: 0; stroke-linejoin: miter; stroke-miterlimit: 4; fill: rgb(252,71,85); fill-rule: nonzero; opacity: 1;" vector-effect="non-scaling-stroke"  transform=" translate(-242.8, -305.63)" d="M 432 278.833 C 432 398.12300000000005 335.29 494.833 216 494.833 C 151.26999999999998 494.833 93.18 466.353 53.599999999999994 421.23300000000006 C 91.62 454.60300000000007 141.45 474.8330000000001 196 474.8330000000001 C 315.29 474.8330000000001 412 378.1230000000001 412 258.8330000000001 C 412 204.28300000000007 391.77 154.4530000000001 358.4 116.43300000000008 C 403.52 156.0130000000001 432 214.10300000000007 432 278.8330000000001 z" stroke-linecap="round" />
</g>
		<g transform="matrix(0.1 0 0 0.1 -3.18 3.17)" id="Capa_1"  >
<circle style="stroke: none; stroke-width: 1; stroke-dasharray: none; stroke-linecap: butt; stroke-dashoffset: 0; stroke-linejoin: miter; stroke-miterlimit: 4; fill: rgb(245,245,245); fill-rule: nonzero; opacity: 1;" vector-effect="non-scaling-stroke"  cx="0" cy="0" r="163" />
</g>
		<g transform="matrix(0.1 0 0 0.1 -1.25 5.1)" id="Capa_1"  >
<path style="stroke: none; stroke-width: 1; stroke-dasharray: none; stroke-linecap: butt; stroke-dashoffset: 0; stroke-linejoin: miter; stroke-miterlimit: 4; fill: rgb(230,230,230); fill-rule: nonzero; opacity: 1;" vector-effect="non-scaling-stroke"  transform=" translate(-235.08, -297.92)" d="M 379 278.833 C 379 368.853 306.02 441.833 216 441.833 C 165.9 441.833 121.08 419.223 91.17 383.663 C 119.51 407.483 156.07999999999998 421.833 196 421.833 C 286.02 421.833 359 348.853 359 258.833 C 359 218.913 344.65 182.34300000000002 320.83 154.00300000000004 C 356.39 183.91300000000004 379 228.73300000000006 379 278.833 z" stroke-linecap="round" />
</g>
		<g transform="matrix(0.1 0 0 0.1 -3.18 3.17)" id="Capa_1"  >
<circle style="stroke: none; stroke-width: 1; stroke-dasharray: none; stroke-linecap: butt; stroke-dashoffset: 0; stroke-linejoin: miter; stroke-miterlimit: 4; fill: rgb(253,100,111); fill-rule: nonzero; opacity: 1;" vector-effect="non-scaling-stroke"  cx="0" cy="0" r="110" />
</g>
		<g transform="matrix(0.1 0 0 0.1 -2.02 4.33)" id="Capa_1"  >
<path style="stroke: none; stroke-width: 1; stroke-dasharray: none; stroke-linecap: butt; stroke-dashoffset: 0; stroke-linejoin: miter; stroke-miterlimit: 4; fill: rgb(252,71,85); fill-rule: nonzero; opacity: 1;" vector-effect="non-scaling-stroke"  transform=" translate(-227.43, -290.26)" d="M 326 278.833 C 326 339.583 276.75 388.833 216 388.833 C 180.53 388.833 148.97 372.043 128.86 345.973 C 147.43 360.313 170.72000000000003 368.833 196 368.833 C 256.75 368.833 306 319.583 306 258.833 C 306 233.55300000000003 297.48 210.26300000000003 283.14 191.69300000000004 C 309.21 211.80300000000005 326 243.36300000000006 326 278.833 z" stroke-linecap="round" />
</g>
		<g transform="matrix(0.1 0 0 0.1 -3.18 3.17)" id="Capa_1"  >
<circle style="stroke: none; stroke-width: 1; stroke-dasharray: none; stroke-linecap: butt; stroke-dashoffset: 0; stroke-linejoin: miter; stroke-miterlimit: 4; fill: rgb(245,245,245); fill-rule: nonzero; opacity: 1;" vector-effect="non-scaling-stroke"  cx="0" cy="0" r="56" />
</g>
		<g transform="matrix(0.1 0 0 0.1 14.23 10.91)" id="Capa_1"  >
<path style="stroke: none; stroke-width: 1; stroke-dasharray: none; stroke-linecap: butt; stroke-dashoffset: 0; stroke-linejoin: miter; stroke-miterlimit: 4; fill: rgb(252,71,85); fill-rule: nonzero; opacity: 1;" vector-effect="non-scaling-stroke"  transform=" translate(-388.29, -355.43)" d="M 420.37 348.923 C 416.11 361.343 410.76 373.243 404.42 384.51300000000003 L 356.20000000000005 362.023 C 362.81000000000006 350.923 368.13000000000005 338.963 371.96000000000004 326.353 z" stroke-linecap="round" />
</g>
		<g transform="matrix(0.1 0 0 0.1 9.34 8.63)" id="Capa_1"  >
<path style="stroke: none; stroke-width: 1; stroke-dasharray: none; stroke-linecap: butt; stroke-dashoffset: 0; stroke-linejoin: miter; stroke-miterlimit: 4; fill: rgb(230,230,230); fill-rule: nonzero; opacity: 1;" vector-effect="non-scaling-stroke"  transform=" translate(-339.88, -332.82)" d="M 371.96 326.353 C 368.13 338.963 362.81 350.923 356.2 362.023 L 307.78999999999996 339.45300000000003 C 314.92999999999995 328.68300000000005 320.21 316.593 323.18999999999994 303.61300000000006 z" stroke-linecap="round" />
</g>
		<g transform="matrix(0.1 0 0 0.1 4.35 6.28)" id="Capa_1"  >
<path style="stroke: none; stroke-width: 1; stroke-dasharray: none; stroke-linecap: butt; stroke-dashoffset: 0; stroke-linejoin: miter; stroke-miterlimit: 4; fill: rgb(252,71,85); fill-rule: nonzero; opacity: 1;" vector-effect="non-scaling-stroke"  transform=" translate(-290.48, -309.59)" d="M 323.19 303.613 C 320.21 316.593 314.93 328.683 307.79 339.453 L 257.77000000000004 316.133 C 266.43000000000006 306.433 271.77000000000004 293.703 271.99000000000007 279.733 z" stroke-linecap="round" />
</g>
		<g transform="matrix(0.1 0 0 0.1 -1.17 3.96)" id="Capa_1"  >
<path style="stroke: none; stroke-width: 1; stroke-dasharray: none; stroke-linecap: butt; stroke-dashoffset: 0; stroke-linejoin: miter; stroke-miterlimit: 4; fill: rgb(230,230,230); fill-rule: nonzero; opacity: 1;" vector-effect="non-scaling-stroke"  transform=" translate(-235.82, -286.62)" d="M 271.99 279.733 C 271.77 293.70300000000003 266.43 306.433 257.77 316.133 L 210.92 294.28299999999996 C 201.76 290.02299999999997 197.48 279.54299999999995 200.75 270.203 C 200.97 269.59299999999996 201.21 268.98299999999995 201.49 268.373 C 203.77 263.493 207.8 260.003 212.5 258.293 C 217.18 256.593 222.53 256.663 227.4 258.943 z" stroke-linecap="round" />
</g>
		<g transform="matrix(0.1 0 0 0.1 18.34 -12.48)" id="Capa_1"  >
<path style="stroke: none; stroke-width: 1; stroke-dasharray: none; stroke-linecap: butt; stroke-dashoffset: 0; stroke-linejoin: miter; stroke-miterlimit: 4; fill: rgb(80,117,141); fill-rule: nonzero; opacity: 1;" vector-effect="non-scaling-stroke"  transform=" translate(-428.95, -123.88)" d="M 493.178 90.195 C 494.78 90.46199999999999 495.412 92.42699999999999 494.266 93.579 L 473.10900000000004 114.833 L 460.129 127.87299999999999 L 424.661 163.495 C 422.382 165.784 419.137 166.83100000000002 415.949 166.306 L 363.048 157.59300000000002 L 402.668 118.29300000000002 L 415.798 105.27300000000002 L 439.948 81.31300000000002 z" stroke-linecap="round" />
</g>
		<g transform="matrix(0.1 0 0 0.1 19.24 -13.22)" id="Capa_1"  >
<path style="stroke: none; stroke-width: 1; stroke-dasharray: none; stroke-linecap: butt; stroke-dashoffset: 0; stroke-linejoin: miter; stroke-miterlimit: 4; fill: rgb(43,89,127); fill-rule: nonzero; opacity: 1;" vector-effect="non-scaling-stroke"  transform=" translate(-437.89, -116.57)" d="M 473.11 114.833 L 460.13 127.87299999999999 L 402.67 118.29299999999999 L 415.8 105.273 z" stroke-linecap="round" />
</g>
		<g transform="matrix(0.1 0 0 0.1 12.57 -18.27)" id="Capa_1"  >
<path style="stroke: none; stroke-width: 1; stroke-dasharray: none; stroke-linecap: butt; stroke-dashoffset: 0; stroke-linejoin: miter; stroke-miterlimit: 4; fill: rgb(80,117,141); fill-rule: nonzero; opacity: 1;" vector-effect="non-scaling-stroke"  transform=" translate(-371.87, -66.59)" d="M 414.63 58.223 L 390.6 81.733 L 377.53000000000003 94.523 L 338.05 133.153 L 329.233 79.57499999999999 C 328.71 76.39699999999999 329.75 73.16199999999999 332.026 70.88399999999999 L 367.64 35.23299999999998 L 380.66999999999996 22.182999999999982 L 402.22799999999995 0.6079999999999828 C 403.3829999999999 -0.5480000000000171 405.36099999999993 0.09399999999998276 405.61799999999994 1.7069999999999828 z" stroke-linecap="round" />
</g>
		<g transform="matrix(0.1 0 0 0.1 13.31 -19.1)" id="Capa_1"  >
<path style="stroke: none; stroke-width: 1; stroke-dasharray: none; stroke-linecap: butt; stroke-dashoffset: 0; stroke-linejoin: miter; stroke-miterlimit: 4; fill: rgb(43,89,127); fill-rule: nonzero; opacity: 1;" vector-effect="non-scaling-stroke"  transform=" translate(-379.12, -58.35)" d="M 390.6 81.733 L 377.53000000000003 94.523 L 367.64000000000004 35.233 L 380.67 22.182999999999996 z" stroke-linecap="round" />
</g>
		<g transform="matrix(0.1 0 0 0.1 8.34 -8.24)" id="Capa_1"  >
<path style="stroke: none; stroke-width: 1; stroke-dasharray: none; stroke-linecap: butt; stroke-dashoffset: 0; stroke-linejoin: miter; stroke-miterlimit: 4; fill: rgb(145,130,145); fill-rule: nonzero; opacity: 1;" vector-effect="non-scaling-stroke"  transform=" translate(-330, -165.83)" d="M 460.34 54.993 C 460.34 59.973 458.44 64.973 454.63 68.773 L 232.94 290.46299999999997 C 225.8 297.61299999999994 214.49 298.05299999999994 206.82999999999998 291.78299999999996 C 206.32999999999998 291.37299999999993 205.83999999999997 290.93299999999994 205.36999999999998 290.46299999999997 C 201.55999999999997 286.65299999999996 199.65999999999997 281.67299999999994 199.65999999999997 276.67299999999994 C 199.65999999999997 271.6929999999999 201.55999999999997 266.6929999999999 205.36999999999998 262.893 L 427.05999999999995 41.202999999999975 C 434.66999999999996 33.58299999999998 447.0199999999999 33.58299999999998 454.62999999999994 41.202999999999975 C 455.09999999999997 41.67299999999997 455.53999999999996 42.162999999999975 455.94999999999993 42.662999999999975 C 458.87999999999994 46.242999999999974 460.3399999999999 50.61299999999998 460.3399999999999 54.992999999999974 z" stroke-linecap="round" />
</g>
		<g transform="matrix(0.1 0 0 0.1 8.71 -7.88)" id="Capa_1"  >
<path style="stroke: none; stroke-width: 1; stroke-dasharray: none; stroke-linecap: butt; stroke-dashoffset: 0; stroke-linejoin: miter; stroke-miterlimit: 4; fill: rgb(122,110,121); fill-rule: nonzero; opacity: 1;" vector-effect="non-scaling-stroke"  transform=" translate(-333.58, -169.42)" d="M 460.34 54.993 C 460.34 59.973 458.44 64.973 454.63 68.773 L 232.94 290.46299999999997 C 225.8 297.61299999999994 214.49 298.05299999999994 206.82999999999998 291.78299999999996 L 455.95 42.662999999999954 C 458.88 46.24299999999995 460.34 50.61299999999996 460.34 54.99299999999995 z" stroke-linecap="round" />
</g>
</g>
</g>
</svg>